# xmcd
#
# Track frame offsets:
#	150
#	21916
#	37919
#	52522
#	67714
#	81287
#	100903
#	115940
#	133488
#	153218
#
# Disc length: 2286 seconds
#
# Revision: 1
# Processed by: cddbd v1.5.2PL0 Copyright (c) Steve Scherf et al.
# Submitted via: audiograbber 1.83.01
#
DISCID=7308ec0a
DTITLE=Patty Horn - For All Time
DYEAR=2011
DGENRE=Country
TTITLE0=The Very Thought of You
TTITLE1=My Romance
TTITLE2=Time After Time
TTITLE3=For All Time
TTITLE4=Look At You
TTITLE5=Crazy
TTITLE6=Walking After Midnight
TTITLE7=I Fall To Pieces
TTITLE8=Time Stood Still
TTITLE9=Since You've Been Gone
EXTD=
EXTT0=
EXTT1=
EXTT2=
EXTT3=
EXTT4=
EXTT5=
EXTT6=
EXTT7=
EXTT8=
EXTT9=
PLAYORDER=
